@startuml
interface Parcelable
interface ParsingPackageRead
interface PkgPackageInfo
interface PkgAppInfo
interface AndroidPackage
interface ParsedPackage
interface ParsingPackage
class ParsingPackageImpl{
    +{static}ForBoolean sForBoolean
    +{static} ForInternedString sForInternedString
    +{static} ForInternedStringArray sForInternedStringArray
    +{static} ForInternedStringList sForInternedStringList
    +{static} ForInternedStringValueMap sForInternedStringValueMap
    +{static} ForStringSet sForStringSet
    #{static} ParsedIntentInfo.StringPairListParceler sForIntentInfoPairs
    -Boolean supportsSmallScreens
    -Boolean supportsNormalScreens
    -Boolean supportsLargeScreens
    -Boolean supportsExtraLargeScreens
    -Boolean resizeable
    -Boolean anyDensity
    #int versionCode
    #int versionCodeMajor
    -int baseRevisionCode
    -String versionName
    -int compileSdkVersion
    -String compileSdkVersionCodeName
    #String packageName
    -String realPackage
    #String baseCodePath
    -boolean requiredForAllUsers
    -String restrictedAccountType
    -String requiredAccountType
    -String overlayTarget
    -String overlayTargetName
    -String overlayCategory
    -int overlayPriority
    -boolean overlayIsStatic
    -Map<String, String> overlayable
    -String staticSharedLibName
    -long staticSharedLibVersion
    -List<String> libraryNames
    #List<String> usesLibraries
    #List<String> usesOptionalLibraries
    -List<String> usesStaticLibrarie
    -long[] usesStaticLibrariesVersions
    -String[][] usesStaticLibrariesCertDigests
    -String sharedUserId
    -int sharedUserLabel
    -List<ConfigurationInfo> configPreferences
    -List<FeatureInfo> reqFeatures
    -List<FeatureGroupInfo> featureGroups
    -byte[] restrictUpdateHash
    #List<String> originalPackages
    #List<String> adoptPermissions
    -List<String> requestedPermissions
    -List<String> implicitPermissions
    -Set<String> upgradeKeySets
    -Map<String, ArraySet<PublicKey>> keySetMapping
    #List<String> protectedBroadcasts
    #List<ParsedActivity> activities
    #List<ParsedActivity> receivers
    #List<ParsedService> services
    #List<ParsedProvider> providers
    -List<ParsedAttribution> attributions
    #List<ParsedPermission> permissions
    #List<ParsedPermissionGroup> permissionGroups
    #List<ParsedInstrumentation> instrumentations
    -List<Pair<String, ParsedIntentInfo>> preferredActivityFilters
    -Map<String, ParsedProcess> processes
    -Bundle metaData
    #String volumeUuid
    -PackageParser.SigningDetails signingDetails
    #String codePath
    -boolean use32BitAbi
    -boolean visibleToInstantApps
    -boolean forceQueryable
    -List<Intent> queriesIntents
    -List<String> queriesPackages
    -Set<String> queriesProviders
    -String[] splitClassLoaderNames
    #String[] splitCodePaths
    -SparseArray<int[]> splitDependencies
    -int[] splitFlags
    -String[] splitNames
    -int[] splitRevisionCodes
    -String appComponentFactory
    -String backupAgentName
    -int banner
    -int category
    -String classLoaderName
    -String className
    -int compatibleWidthLimitDp
    -int descriptionRes
    -boolean enabled
    -boolean crossProfile
    -int fullBackupContent
    -int iconRes
    -int installLocation
    -int labelRes
    -int largestWidthLimitDp
    -int logo
    -String manageSpaceActivityName
    -float maxAspectRatio
    -float minAspectRatio
    -SparseIntArray minExtensionVersions
    -int minSdkVersion
    -int networkSecurityConfigRes
    -CharSequence nonLocalizedLabel
    -String permission
    -String processName
    -int requiresSmallestWidthDp
    -int roundIconRes
    -int targetSandboxVersion
    -int targetSdkVersion
    -String taskAffinity
    -int theme
    -int uiOptions
    -String zygotePreloadName
    -boolean externalStorage
    -boolean baseHardwareAccelerated
    -boolean allowBackup
    -boolean killAfterRestore
    -boolean restoreAnyVersion
    -boolean fullBackupOnly
    -boolean persistent
    -boolean debuggable
    -boolean vmSafeMode
    -boolean hasCode
    -boolean allowTaskReparenting
    -boolean allowClearUserData
    -boolean largeHeap
    -boolean usesCleartextTraffic
    -boolean supportsRtl
    -boolean testOnly
    -boolean multiArch
    -boolean extractNativeLibs
    -boolean game
    -Boolean resizeableActivity
    -boolean staticSharedLibrary
    -boolean overlay
    -boolean isolatedSplitLoading
    -boolean hasDomainUrls
    -boolean profileableByShell
    -boolean backupInForeground
    -boolean useEmbeddedDex
    -boolean defaultToDeviceProtectedStorage
    -boolean directBootAware
    -boolean partiallyDirectBootAware
    -boolean resizeableActivityViaSdkVersion
    -boolean allowClearUserDataOnFailedRestore
    -boolean allowAudioPlaybackCapture
    -boolean requestLegacyExternalStorage
    -boolean usesNonSdkApi
    -boolean hasFragileUserData
    -boolean cantSaveState
    -boolean allowNativeHeapPointerTagging
    -int autoRevokePermissions
    -boolean preserveLegacyExternalStorage
    #int gwpAsanMode
    -ArraySet<String> mimeGroups
}
class PackageImpl {
    -String manifestPackageName
    -boolean stub
    #String nativeLibraryDir
    #String nativeLibraryRootDir
    -boolean nativeLibraryRootRequiresIsa
    #String primaryCpuAbi
    #String secondaryCpuAbi
    #String secondaryNativeLibraryDir
    #String seInfo
    #String seInfoUser
    -boolean coreApp
    -boolean system
    -boolean factoryTest
    -boolean systemExt
    -boolean privileged
    -boolean oem
    -boolean vendor
    -boolean product
    -boolean odm
    -boolean signedWithPlatformKey
    -int uid
}
Parcelable<|--ParsingPackageRead
ParsingPackageImpl<|--PackageImpl
ParsedPackage<|..PackageImpl
AndroidPackage<|..PackageImpl
Parcelable<|--AndroidPackage
ParsingPackageRead<|--AndroidPackage
PkgPackageInfo<|--AndroidPackage
PkgAppInfo<|--AndroidPackage
AndroidPackage<|--ParsedPackage
ParsingPackage<|..ParsingPackageImpl
Parcelable<|..ParsingPackageImpl
@enduml
