@startuml
interface Parcelable
interface ParsingPackageRead
interface PkgPackageInfo
interface PkgAppInfo
interface AndroidPackage
interface ParsedPackage
interface ParsingPackage
class ParsingPackageImpl{
    #int versionCode
    #int versionCodeMajor
    -int baseRevisionCode
    -String versionName
    -int compileSdkVersion
    -String compileSdkVersionCodeName
    #String packageName
    -String realPackage
    #String baseCodePath
    -boolean requiredForAllUsers
    -String overlayTarget
    -String overlayTargetName
    -String staticSharedLibName
    -long staticSharedLibVersion
    -List<String> libraryNames
    #List<String> usesLibraries
    #List<String> usesOptionalLibraries
    -List<String> usesStaticLibrarie
    -String sharedUserId
    -int sharedUserLabel
    -List<FeatureInfo> reqFeatures
    -List<FeatureGroupInfo> featureGroups
    #List<String> originalPackages
    #List<String> adoptPermissions
    -List<String> requestedPermissions
    -List<String> implicitPermissions
    #List<String> protectedBroadcasts
    #List<ParsedActivity> activities
    #List<ParsedActivity> receivers
    #List<ParsedService> services
    #List<ParsedProvider> providers
    -List<ParsedAttribution> attributions
    #List<ParsedPermission> permissions
    #List<ParsedPermissionGroup> permissionGroups
    #List<ParsedInstrumentation> instrumentations
    -List<Pair<String, ParsedIntentInfo>> preferredActivityFilters
    -Map<String, ParsedProcess> processes
    -PackageParser.SigningDetails signingDetails
    #String codePath
    -List<Intent> queriesIntents
    -List<String> queriesPackages
    -Set<String> queriesProviders
    -String[] splitClassLoaderNames
    #String[] splitCodePaths
    -SparseArray<int[]> splitDependencies
    -int[] splitFlags
    -String[] splitNames
    -int[] splitRevisionCodes
    -int minSdkVersion
    -String processName
    -int targetSdkVersion
    -String taskAffinity
    -int theme
    -int uiOptions
    -boolean baseHardwareAccelerated
    -boolean debuggable
    -boolean supportsRtl
    -boolean multiArch
    -boolean extractNativeLibs
    -Boolean resizeableActivity
    -boolean staticSharedLibrary
    -boolean overlay
    -boolean directBootAware
}
class PackageImpl {
    -String manifestPackageName
    -boolean stub
    #String nativeLibraryDir
    #String nativeLibraryRootDir
    -boolean nativeLibraryRootRequiresIsa
    #String primaryCpuAbi
    #String secondaryCpuAbi
    #String secondaryNativeLibraryDir
    #String seInfo
    #String seInfoUser
    -boolean coreApp
    -boolean system
    -boolean factoryTest
    -boolean systemExt
    -boolean privileged
    -boolean oem
    -boolean vendor
    -boolean product
    -boolean odm
    -boolean signedWithPlatformKey
    -int uid
}
Parcelable<|--ParsingPackageRead
ParsingPackageImpl<|--PackageImpl
ParsedPackage<|..PackageImpl
AndroidPackage<|..PackageImpl
Parcelable<|--AndroidPackage
ParsingPackageRead<|--AndroidPackage
PkgPackageInfo<|--AndroidPackage
PkgAppInfo<|--AndroidPackage
AndroidPackage<|--ParsedPackage
ParsingPackage<|..ParsingPackageImpl
Parcelable<|..ParsingPackageImpl
@enduml
